<svg width="6" height="5" viewBox="0 0 6 5" fill="none" xmlns="http://www.w3.org/2000/svg">
<path d="M2.79445 4.49467C2.81739 4.52798 2.84808 4.55521 2.88388 4.57403C2.91968 4.59284 2.95951 4.60268 2.99995 4.60268C3.0404 4.60268 3.08023 4.59284 3.11603 4.57403C3.15183 4.55521 3.18252 4.52798 3.20545 4.49467L5.45545 1.24467C5.4815 1.20718 5.49677 1.16328 5.49961 1.11772C5.50245 1.07216 5.49276 1.0267 5.47158 0.986266C5.45039 0.945833 5.41853 0.911979 5.37946 0.888382C5.34039 0.864784 5.2956 0.852345 5.24995 0.852417H0.749954C0.704415 0.852605 0.659788 0.865204 0.620874 0.888858C0.581959 0.912512 0.550229 0.946327 0.529096 0.986666C0.507962 1.027 0.498225 1.07234 0.500931 1.1178C0.503637 1.16326 0.518684 1.20712 0.544454 1.24467L2.79445 4.49467Z" fill="white" fill-opacity="0.64"/>
</svg>
